<mxfile host="65bd71144e">
    <diagram id="EUAPaXDOm4tKN_-mvN03" name="Page-1">
        <mxGraphModel dx="1066" dy="612" grid="0" gridSize="10" guides="1" tooltips="1" connect="1" arrows="1" fold="1" page="1" pageScale="1" pageWidth="850" pageHeight="1100" math="0" shadow="0">
            <root>
                <mxCell id="0"/>
                <mxCell id="1" parent="0"/>
                <mxCell id="21" value="" style="rounded=0;whiteSpace=wrap;html=1;fillColor=#f9f7ed;strokeColor=#36393d;" vertex="1" parent="1">
                    <mxGeometry x="14" y="14" width="748" height="445" as="geometry"/>
                </mxCell>
                <mxCell id="2" value="VDOM" style="text;html=1;strokeColor=none;fillColor=none;align=center;verticalAlign=middle;whiteSpace=wrap;rounded=1;fontColor=#1A1A1A;" vertex="1" parent="1">
                    <mxGeometry x="70" y="40" width="60" height="30" as="geometry"/>
                </mxCell>
                <mxCell id="7" style="edgeStyle=none;html=1;entryX=0;entryY=0.5;entryDx=0;entryDy=0;dashed=1;strokeColor=#1A1A1A;" edge="1" parent="1" source="3" target="4">
                    <mxGeometry relative="1" as="geometry">
                        <Array as="points">
                            <mxPoint x="100" y="175"/>
                        </Array>
                    </mxGeometry>
                </mxCell>
                <mxCell id="8" style="edgeStyle=none;html=1;exitX=0.5;exitY=1;exitDx=0;exitDy=0;entryX=0;entryY=0.5;entryDx=0;entryDy=0;dashed=1;strokeColor=#1A1A1A;" edge="1" parent="1" source="3" target="5">
                    <mxGeometry relative="1" as="geometry">
                        <Array as="points">
                            <mxPoint x="100" y="215"/>
                        </Array>
                    </mxGeometry>
                </mxCell>
                <mxCell id="9" style="edgeStyle=none;html=1;exitX=0.5;exitY=1;exitDx=0;exitDy=0;entryX=0;entryY=0.5;entryDx=0;entryDy=0;dashed=1;strokeColor=#1A1A1A;" edge="1" parent="1" source="3" target="6">
                    <mxGeometry relative="1" as="geometry">
                        <Array as="points">
                            <mxPoint x="100" y="255"/>
                        </Array>
                    </mxGeometry>
                </mxCell>
                <mxCell id="3" value="Body" style="rounded=1;whiteSpace=wrap;html=1;dashed=1;fillColor=none;strokeColor=#1A1A1A;fontColor=#1A1A1A;" vertex="1" parent="1">
                    <mxGeometry x="40" y="80" width="120" height="60" as="geometry"/>
                </mxCell>
                <mxCell id="4" value="Header&lt;br&gt;" style="rounded=1;whiteSpace=wrap;html=1;dashed=1;fillColor=none;strokeColor=#1A1A1A;fontColor=#1A1A1A;" vertex="1" parent="1">
                    <mxGeometry x="200" y="160" width="120" height="30" as="geometry"/>
                </mxCell>
                <mxCell id="5" value="div" style="rounded=1;whiteSpace=wrap;html=1;dashed=1;fillColor=none;strokeColor=#1A1A1A;fontColor=#1A1A1A;" vertex="1" parent="1">
                    <mxGeometry x="200" y="200" width="120" height="30" as="geometry"/>
                </mxCell>
                <mxCell id="6" value="Footer" style="rounded=1;whiteSpace=wrap;html=1;dashed=1;fillColor=none;strokeColor=#1A1A1A;fontColor=#1A1A1A;" vertex="1" parent="1">
                    <mxGeometry x="200" y="240" width="120" height="30" as="geometry"/>
                </mxCell>
                <mxCell id="10" value="Real DOM" style="text;html=1;strokeColor=none;fillColor=none;align=center;verticalAlign=middle;whiteSpace=wrap;rounded=1;fontColor=#1A1A1A;" vertex="1" parent="1">
                    <mxGeometry x="430" y="50" width="60" height="30" as="geometry"/>
                </mxCell>
                <mxCell id="11" style="edgeStyle=none;html=1;entryX=0;entryY=0.5;entryDx=0;entryDy=0;strokeColor=#1A1A1A;" edge="1" source="14" target="15" parent="1">
                    <mxGeometry relative="1" as="geometry">
                        <Array as="points">
                            <mxPoint x="460" y="185"/>
                        </Array>
                    </mxGeometry>
                </mxCell>
                <mxCell id="12" style="edgeStyle=none;html=1;exitX=0.5;exitY=1;exitDx=0;exitDy=0;entryX=0;entryY=0.5;entryDx=0;entryDy=0;strokeColor=#1A1A1A;" edge="1" source="14" target="16" parent="1">
                    <mxGeometry relative="1" as="geometry">
                        <Array as="points">
                            <mxPoint x="460" y="225"/>
                        </Array>
                    </mxGeometry>
                </mxCell>
                <mxCell id="13" style="edgeStyle=none;html=1;exitX=0.5;exitY=1;exitDx=0;exitDy=0;entryX=0;entryY=0.5;entryDx=0;entryDy=0;strokeColor=#1A1A1A;" edge="1" source="14" target="17" parent="1">
                    <mxGeometry relative="1" as="geometry">
                        <Array as="points">
                            <mxPoint x="460" y="265"/>
                        </Array>
                    </mxGeometry>
                </mxCell>
                <mxCell id="14" value="Body" style="rounded=1;whiteSpace=wrap;html=1;fillColor=#6d8764;fontColor=#ffffff;strokeColor=#3A5431;" vertex="1" parent="1">
                    <mxGeometry x="400" y="90" width="120" height="60" as="geometry"/>
                </mxCell>
                <mxCell id="15" value="Header&lt;br&gt;" style="rounded=1;whiteSpace=wrap;html=1;fillColor=#6d8764;fontColor=#ffffff;strokeColor=#3A5431;" vertex="1" parent="1">
                    <mxGeometry x="560" y="170" width="120" height="30" as="geometry"/>
                </mxCell>
                <mxCell id="16" value="div" style="rounded=1;whiteSpace=wrap;html=1;fillColor=#6d8764;fontColor=#ffffff;strokeColor=#3A5431;" vertex="1" parent="1">
                    <mxGeometry x="560" y="210" width="120" height="30" as="geometry"/>
                </mxCell>
                <mxCell id="17" value="Footer" style="rounded=1;whiteSpace=wrap;html=1;fillColor=#6d8764;fontColor=#ffffff;strokeColor=#3A5431;" vertex="1" parent="1">
                    <mxGeometry x="560" y="250" width="120" height="30" as="geometry"/>
                </mxCell>
            </root>
        </mxGraphModel>
    </diagram>
</mxfile>